<?xml version="1.0" standalone="no"?>
<!DOCTYPE svg PUBLIC "-//W3C//DTD SVG 20010904//EN"
 "http://www.w3.org/TR/2001/REC-SVG-20010904/DTD/svg10.dtd">
<svg version="1.0" xmlns="http://www.w3.org/2000/svg"
 width="300.000000pt" height="300.000000pt" viewBox="0 0 300.000000 300.000000"
 preserveAspectRatio="xMidYMid meet">
<metadata>
Created by potrace 1.10, written by Peter Selinger 2001-2011
</metadata>
<g transform="translate(0.000000,300.000000) scale(0.100000,-0.100000)"
fill="#000000" stroke="none">
<path d="M818 2728 c-10 -18 -13 -177 -13 -753 0 -401 3 -742 8 -757 l7 -28
121 0 c76 0 118 -4 114 -10 -3 -5 -6 -62 -7 -126 -1 -101 2 -119 17 -130 22
-17 103 -8 128 14 16 14 19 14 30 -3 12 -15 29 -18 106 -18 95 0 107 4 113 38
5 30 36 31 47 1 6 -13 18 -29 28 -34 19 -10 63 1 63 17 0 5 17 0 38 -11 43
-22 103 -19 132 7 17 16 20 15 39 -4 26 -26 32 -26 65 0 25 20 28 20 45 5 22
-20 55 -21 71 -1 10 12 5 23 -29 62 l-42 47 36 36 c42 43 43 53 10 68 -21 10
-30 9 -49 -3 -21 -14 -26 -14 -54 2 -29 17 -31 17 -50 0 -19 -17 -22 -17 -51
-3 -38 20 -79 20 -118 1 -39 -19 -50 -33 -66 -80 l-13 -38 -22 50 c-40 94 -66
93 -110 -6 -21 -46 -36 -67 -49 -68 -10 -1 -28 -4 -41 -8 -23 -8 -23 -7 -21
63 3 95 -25 128 -72 86 -17 -16 -20 -15 -48 15 l-29 31 454 0 454 0 7 27 c5
16 8 357 8 758 0 570 -3 735 -13 753 l-13 22 -609 0 -609 0 -13 -22z m1232
-760 l0 -758 -610 0 -610 0 0 758 0 757 610 0 610 0 0 -757z m-892 -824 c23
-16 29 -53 12 -70 -7 -7 -4 -16 10 -29 21 -19 26 -50 10 -75 -9 -15 -130 -32
-130 -18 0 4 5 8 10 8 6 0 10 37 10 90 0 74 -3 91 -17 99 -14 8 -8 10 27 11
26 0 55 -7 68 -16z m124 -26 c-7 -7 -12 -42 -12 -85 l0 -73 35 0 c22 0 38 6
41 15 4 8 10 15 15 15 6 0 5 -8 -1 -19 -7 -15 -23 -20 -70 -23 -33 -1 -60 0
-60 5 0 4 5 7 10 7 15 0 13 143 -2 158 -9 9 -4 12 22 12 26 0 31 -3 22 -12z
m222 -59 c16 -40 37 -80 48 -91 11 -11 18 -21 16 -23 -7 -7 -57 8 -52 16 3 5
0 18 -6 29 -16 30 -76 28 -86 -2 -5 -13 -7 -26 -6 -29 1 -4 -10 -9 -23 -12
-26 -4 -35 7 -12 16 7 3 29 41 48 86 18 44 36 81 39 81 3 0 18 -32 34 -71z
m236 51 c11 -11 20 -28 20 -37 -1 -13 -5 -11 -15 9 -30 54 -115 45 -134 -15
-19 -58 11 -107 66 -107 43 0 73 16 73 38 0 10 5 23 12 30 8 8 8 12 1 12 -6 0
-18 -11 -27 -24 -35 -55 -96 -40 -96 23 0 34 4 40 27 46 19 4 34 0 55 -15 23
-17 32 -19 44 -10 17 15 18 2 3 -52 -7 -26 -19 -43 -39 -53 -102 -53 -201 66
-121 146 37 36 99 41 131 9z m102 8 c-15 -15 -17 -158 -2 -158 6 0 10 -4 10
-8 0 -5 -15 -6 -32 -4 -18 3 -27 7 -20 9 16 6 17 144 0 161 -9 9 -4 12 22 12
26 0 31 -3 22 -12z m93 -7 c-16 -10 -39 -29 -51 -43 l-21 -24 38 -42 c20 -23
42 -42 48 -42 6 0 11 -4 11 -10 0 -23 -48 4 -87 50 l-32 36 30 37 c17 20 27
41 24 47 -4 6 9 10 32 10 l38 0 -30 -19z m-715 -33 c0 -21 -3 -29 -10 -22 -5
5 -7 19 -4 32 9 31 14 27 14 -10z"/>
<path d="M1399 2237 c-140 -39 -208 -204 -142 -344 61 -131 256 -166 378 -68
16 12 21 32 25 88 5 66 7 72 30 78 15 4 -4 7 -50 8 -67 1 -72 -1 -50 -12 22
-11 25 -20 28 -79 l3 -66 -38 -23 c-49 -31 -146 -38 -191 -15 -103 53 -142
208 -83 324 63 124 254 131 313 12 18 -37 22 -25 12 30 -6 26 -15 36 -48 51
-57 25 -132 31 -187 16z"/>
<path d="M1810 2240 c-74 -3 -127 -7 -118 -8 44 -5 48 -24 48 -218 0 -192 -6
-224 -40 -224 -11 0 -20 -4 -20 -8 0 -4 34 -8 75 -7 71 0 101 10 53 17 -22 3
-23 8 -26 101 l-3 97 66 0 c59 0 67 -2 75 -22 7 -18 9 -9 9 37 1 55 0 58 -12
35 -11 -22 -20 -25 -75 -28 l-62 -3 0 106 0 106 77 -3 c71 -3 79 -5 90 -28 12
-24 13 -23 13 18 0 23 -3 41 -7 40 -5 -1 -69 -5 -143 -8z"/>
<path d="M943 2224 l27 -15 -2 -207 c-3 -206 -3 -207 -25 -210 -13 -2 -23 -7
-23 -10 0 -4 48 -6 108 -4 163 6 207 35 199 136 -4 40 -10 55 -36 78 -17 15
-41 28 -54 28 -21 1 -21 1 5 17 32 20 48 52 48 99 0 70 -66 104 -200 104 -72
-1 -74 -1 -47 -16z m174 -36 c17 -16 23 -33 23 -65 0 -55 -33 -93 -82 -94 -28
-1 -24 -3 22 -14 71 -17 100 -49 100 -111 0 -37 -6 -51 -29 -75 -26 -25 -37
-29 -85 -29 l-56 0 0 211 0 212 42 -7 c24 -4 53 -17 65 -28z m90 -295 c-3 -10
-5 -2 -5 17 0 19 2 27 5 18 2 -10 2 -26 0 -35z"/>
<path d="M1100 1050 c0 -89 0 -90 24 -90 25 0 56 23 56 41 0 26 -23 49 -48 49
l-27 1 28 15 c40 22 34 74 -9 74 -24 0 -24 -2 -24 -90z m37 -52 c-3 -8 -6 -5
-6 6 -1 11 2 17 5 13 3 -3 4 -12 1 -19z"/>
<path d="M1457 1073 c-2 -10 -8 -26 -12 -35 -6 -15 -2 -18 24 -18 30 0 30 1
19 28 -17 39 -25 46 -31 25z"/>
<path d="M472 738 c-39 -19 -65 -73 -59 -124 9 -80 77 -126 157 -104 22 6 46
19 52 30 11 18 12 18 23 -3 9 -18 20 -22 72 -25 54 -3 63 0 79 20 l18 24 23
-22 c32 -30 84 -38 126 -20 19 8 38 19 42 26 5 8 14 5 31 -11 32 -30 87 -31
116 -2 21 22 22 22 48 3 42 -30 89 -34 134 -11 35 18 42 19 56 6 19 -18 51
-20 67 -4 8 8 17 8 31 0 26 -14 129 -15 137 -1 4 6 13 5 25 -2 14 -9 25 -9 43
-1 23 11 25 16 20 55 l-6 43 56 -52 c31 -29 60 -53 64 -53 23 0 33 29 33 91 0
64 1 67 26 72 l26 5 -4 -74 c-5 -77 1 -94 37 -94 41 0 48 14 46 93 l-2 74 26
-5 c25 -4 26 -7 24 -68 -1 -40 2 -69 11 -78 14 -18 47 -21 70 -6 9 5 19 5 27
-2 7 -5 29 -10 49 -11 28 -1 42 5 60 27 31 35 30 70 0 101 l-25 25 27 6 c15 3
32 7 39 9 16 5 20 -19 13 -83 -7 -57 8 -82 47 -82 35 0 46 25 44 100 -1 39 0
70 4 70 3 0 19 -14 35 -32 l30 -32 -22 -23 c-18 -19 -20 -27 -10 -48 23 -51
95 -55 132 -8 26 33 25 58 -1 95 -16 22 -19 32 -10 41 15 15 14 50 -1 65 -15
15 -53 16 -79 1 -15 -7 -24 -7 -33 1 -20 16 -255 11 -283 -6 -20 -12 -26 -12
-45 0 -17 10 -60 14 -163 14 -162 0 -177 -6 -168 -66 l6 -37 -23 20 c-13 11
-37 32 -54 48 -32 29 -62 35 -69 15 -3 -10 -9 -8 -24 5 -22 19 -93 23 -125 6
-14 -8 -28 -7 -49 1 -24 10 -33 10 -54 -4 -23 -15 -27 -15 -57 0 -39 20 -110
14 -139 -12 -12 -11 -28 -32 -36 -47 -8 -16 -17 -26 -21 -23 -3 4 0 12 6 18
15 15 15 51 0 66 -21 21 -70 14 -99 -14 l-27 -26 -24 21 c-59 56 -169 30 -199
-46 -5 -15 -14 -21 -24 -17 -14 6 -13 9 5 21 22 16 26 43 8 61 -15 15 -102 16
-129 2 -14 -8 -19 -22 -21 -53 -1 -36 -2 -38 -5 -10 -8 62 -93 93 -161 61z
m119 -28 c10 -6 19 -20 19 -32 0 -19 -1 -19 -21 6 -44 56 -129 19 -129 -56 0
-47 28 -78 71 -78 58 0 89 36 57 68 -9 9 -4 12 23 11 18 0 28 -3 22 -6 -7 -2
-13 -15 -13 -29 0 -55 -107 -79 -154 -35 -36 34 -37 101 -1 136 26 27 89 34
126 15z m189 -7 c0 -13 -3 -14 -12 -5 -7 7 -25 12 -40 12 -26 0 -28 -3 -28
-39 l0 -40 32 10 c18 5 34 9 35 9 2 0 3 -9 3 -19 0 -17 -5 -19 -35 -14 -35 6
-35 5 -35 -31 0 -33 2 -36 29 -36 16 0 36 7 45 15 21 21 28 19 14 -5 -11 -17
-23 -20 -78 -19 -36 1 -57 3 -47 6 14 4 17 16 17 78 0 60 -3 76 -17 84 -14 8
-1 10 50 11 56 0 67 -3 67 -17z m191 7 c10 -6 26 -24 35 -41 39 -76 -37 -157
-121 -129 -102 34 -80 180 27 180 22 0 48 -5 59 -10z m169 -12 c0 -20 -1 -21
-13 -4 -17 23 -51 17 -55 -9 -1 -14 11 -29 38 -48 28 -20 40 -36 40 -52 0 -32
-39 -58 -74 -49 -32 8 -40 19 -31 42 6 15 8 14 16 -6 7 -18 15 -23 36 -20 44
5 41 34 -6 75 -59 50 -52 93 16 93 27 0 33 -4 33 -22z m196 14 c6 -4 15 -18
19 -32 l8 -25 -26 28 c-31 32 -74 36 -108 8 -30 -24 -33 -89 -5 -120 33 -37
126 -23 126 19 0 10 4 21 10 25 5 3 7 12 4 19 -3 8 -1 17 5 21 14 8 14 -10 0
-58 -8 -31 -18 -42 -47 -54 -99 -41 -184 65 -116 146 22 27 33 31 72 31 26 0
52 -4 58 -8z m115 -1 c-9 -6 -13 -31 -13 -81 0 -50 4 -75 13 -81 9 -6 0 -9
-26 -9 -26 0 -35 3 -26 9 9 6 13 31 13 81 0 50 -4 75 -13 81 -9 6 0 9 26 9 26
0 35 -3 26 -9z m163 -6 c3 -8 1 -15 -4 -15 -6 0 -10 5 -10 10 0 6 -16 10 -35
10 -34 0 -35 -1 -35 -40 0 -22 1 -40 3 -40 1 0 17 4 35 9 30 9 32 8 31 -17 0
-15 -3 -21 -6 -14 -2 6 -18 12 -34 12 -26 0 -29 -3 -29 -35 0 -33 2 -35 34
-35 24 0 40 7 52 23 12 16 15 17 10 4 -3 -10 -6 -23 -6 -28 0 -5 -30 -9 -67
-8 -38 0 -62 3 -55 6 8 3 12 30 12 83 0 53 -4 80 -12 83 -7 3 15 6 48 6 46 1
63 -3 68 -14z m133 -57 l73 -72 0 66 c0 44 -4 68 -12 71 -7 3 0 6 16 6 21 1
26 -2 20 -11 -5 -7 -9 -50 -8 -96 l0 -83 -78 78 -78 78 0 -67 c0 -44 4 -68 13
-71 6 -3 -3 -6 -22 -6 -31 -1 -33 0 -17 12 16 11 18 25 14 90 -2 42 -1 77 2
77 2 0 37 -33 77 -72z m287 57 c3 -8 1 -15 -4 -15 -6 0 -10 5 -10 10 0 6 -13
10 -30 10 l-30 0 0 -79 c0 -54 4 -81 13 -84 6 -3 -4 -5 -23 -5 -19 0 -29 2
-22 5 8 3 12 30 12 84 l0 79 -30 0 c-16 0 -30 -4 -30 -10 0 -5 -4 -10 -10 -10
-5 0 -7 7 -4 15 5 12 24 15 84 15 60 0 79 -3 84 -15z m77 6 c-9 -6 -13 -31
-13 -81 0 -50 4 -75 13 -81 9 -6 0 -9 -26 -9 -26 0 -35 3 -26 9 9 6 13 31 13
81 0 50 -4 75 -13 81 -9 6 0 9 26 9 26 0 35 -3 26 -9z m139 -13 c-1 -22 -1
-22 -15 -4 -10 13 -21 17 -39 12 -37 -9 -32 -26 21 -72 44 -39 47 -43 36 -67
-22 -48 -104 -43 -102 6 l0 22 9 -22 c7 -17 18 -23 39 -23 49 0 48 28 -3 76
-50 46 -51 47 -36 75 8 14 21 19 50 19 35 0 40 -3 40 -22z m190 5 c0 -13 -3
-14 -12 -5 -7 7 -22 12 -35 12 -22 0 -23 -3 -23 -79 0 -54 4 -81 13 -84 6 -3
-6 -6 -28 -6 -32 0 -36 2 -22 10 14 8 17 24 17 84 l0 75 -28 0 c-15 0 -33 -5
-40 -12 -9 -9 -12 -8 -12 5 0 15 12 17 85 17 73 0 85 -2 85 -17z m109 -5 c-1
-17 -2 -19 -6 -5 -6 22 -51 23 -60 0 -5 -12 6 -27 35 -53 48 -41 54 -72 18
-95 -35 -23 -76 -11 -75 24 0 25 0 25 9 4 11 -27 51 -31 70 -8 11 13 5 22 -34
57 -64 57 -59 98 11 98 28 0 33 -3 32 -22z m-1072 -105 c-2 -21 -4 -4 -4 37 0
41 2 58 4 38 2 -21 2 -55 0 -75z m-907 77 c12 -8 13 -13 3 -30 -7 -11 -13 -29
-13 -40 0 -18 -5 -21 -32 -18 -29 3 -33 7 -36 36 -2 18 2 40 9 48 13 16 47 18
69 4z m180 6 c0 -3 -4 -8 -10 -11 -5 -3 -10 -1 -10 4 0 6 5 11 10 11 6 0 10
-2 10 -4z m576 -19 c26 -23 26 -24 10 -49 -20 -30 -43 -38 -74 -27 -18 7 -22
16 -22 48 0 56 39 68 86 28z m254 13 c0 -5 -4 -10 -10 -10 -5 0 -10 5 -10 10
0 6 5 10 10 10 6 0 10 -4 10 -10z m49 -32 l-1 -43 -8 35 c-8 32 -6 50 6 50 2
0 4 -19 3 -42z m519 -36 c-14 -17 -21 -8 -22 28 l-1 30 17 -22 c12 -17 14 -26
6 -36z m47 -12 c3 -5 2 -10 -4 -10 -5 0 -13 5 -16 10 -3 6 -2 10 4 10 5 0 13
-4 16 -10z"/>
<path d="M865 685 c-50 -49 -17 -135 51 -135 47 0 74 29 74 79 0 72 -76 106
-125 56z m83 -17 c29 -29 10 -88 -27 -88 -34 0 -51 17 -51 52 0 40 50 64 78
36z"/>
<path d="M960 325 c-7 -9 -12 -49 -12 -105 0 -97 9 -120 47 -120 30 0 47 23
40 53 -6 22 -3 25 25 29 26 4 33 0 46 -23 37 -72 171 -79 214 -12 10 15 11 15
6 1 -6 -20 23 -48 51 -48 23 0 56 33 46 45 -5 5 7 -3 25 -18 38 -31 54 -33 72
-12 12 14 15 14 36 0 30 -20 93 -19 122 1 21 15 25 15 41 0 10 -9 24 -16 31
-16 22 0 49 31 43 48 -3 10 8 2 24 -17 32 -38 47 -36 65 7 10 24 12 25 16 7 6
-30 22 -45 47 -45 26 0 59 32 46 46 -5 5 -14 43 -20 84 -7 41 -19 82 -28 92
-15 17 -17 17 -35 1 -11 -10 -26 -32 -33 -50 -8 -18 -18 -33 -23 -33 -4 0 -18
17 -30 39 -12 21 -28 43 -35 50 -20 16 -43 -13 -55 -69 l-10 -45 0 51 c2 60
-5 74 -36 74 -37 0 -46 -19 -46 -98 0 -70 -1 -73 -22 -70 -21 3 -23 8 -23 73
0 79 -7 95 -39 95 -26 0 -46 -17 -46 -41 0 -14 -6 -11 -29 12 -25 24 -38 29
-78 29 -53 0 -73 -12 -73 -44 0 -21 -1 -21 -18 0 -38 48 -115 59 -166 24 -30
-19 -30 -19 -43 1 -11 15 -26 19 -72 19 -39 0 -63 -5 -71 -15z m130 -33 c0
-12 -3 -13 -12 -4 -7 7 -27 12 -45 12 -31 0 -33 -2 -33 -36 0 -35 1 -36 35
-32 27 3 35 0 35 -12 0 -12 -8 -15 -35 -12 -33 4 -35 3 -35 -26 0 -19 7 -35
18 -41 13 -8 9 -10 -23 -10 -22 0 -34 3 -27 6 15 6 17 163 2 163 -5 0 -10 3
-10 8 0 4 29 5 65 4 52 -3 65 -7 65 -20z m166 13 c78 -32 77 -138 -2 -171 -52
-22 -102 -3 -127 48 -16 33 -17 40 -3 73 10 23 26 41 48 50 42 18 42 18 84 0z
m447 -2 c-9 -3 -13 -27 -13 -72 0 -72 -10 -91 -57 -105 -17 -6 -80 15 -84 27
0 1 -4 37 -7 80 l-8 77 26 -1 c14 0 19 -3 13 -6 -8 -3 -13 -25 -13 -62 0 -69
19 -101 60 -101 41 0 60 32 60 102 0 39 -4 58 -12 59 -7 1 -2 4 12 8 25 8 45
2 23 -6z m147 -133 c3 1 21 32 40 71 38 78 43 76 55 -29 5 -41 12 -65 23 -72
13 -7 7 -9 -23 -10 -24 0 -35 3 -27 8 9 6 11 24 6 67 l-7 58 -35 -69 -35 -68
-36 69 -36 70 -5 -60 c-4 -37 -2 -63 4 -67 6 -4 -4 -8 -23 -8 -30 0 -32 2 -19
12 9 7 19 36 22 63 17 125 14 123 55 40 20 -41 38 -75 41 -75z m-386 124 c23
-22 20 -50 -6 -69 l-23 -16 42 -39 c31 -30 38 -40 24 -40 -10 0 -36 20 -59 45
-34 37 -38 45 -21 45 11 0 24 11 31 26 11 22 10 28 -7 40 -10 8 -28 14 -39 14
-20 0 -21 -5 -18 -77 2 -45 9 -81 15 -85 7 -4 -6 -8 -28 -8 -27 0 -36 3 -26 9
10 7 14 30 14 81 0 51 -4 74 -14 81 -9 6 6 9 43 9 38 0 62 -5 72 -16z m-407
-30 c-3 -3 -12 -4 -19 -1 -8 3 -5 6 6 6 11 1 17 -2 13 -5z m453 -61 c-1 -35
-2 -36 -15 -19 -11 14 -11 22 -2 37 16 26 17 25 17 -18z"/>
<path d="M1162 277 c-32 -34 -30 -89 4 -116 54 -43 124 -10 124 58 0 72 -81
108 -128 58z m98 -52 c0 -36 -15 -55 -45 -55 -28 0 -45 19 -45 50 0 45 28 65
68 47 16 -7 22 -19 22 -42z"/>
</g>
</svg>
